<svg id="Logo" xmlns="http://www.w3.org/2000/svg" viewBox="0 0 256 256"><defs><style>.cls-1{fill:#4f80ff;}.cls-2{fill:#eb5352;}</style></defs><g id="RU"><path class="cls-1" d="M160.62,233.16c-.64-.67-1.24-1.36-1.81-2.09a18.85,18.85,0,0,1-1.25-2.13,25.94,25.94,0,0,0,4.18-1.65,17.3,17.3,0,0,0,3.14-2.29,15.43,15.43,0,0,0,5.3-11.78,11.89,11.89,0,0,0-1.59-6,16.13,16.13,0,0,0-4.42-4.92,21.54,21.54,0,0,0-6.74-3.37,27.11,27.11,0,0,0-8.2-1.27,49.18,49.18,0,0,0-9.76.83q-4.17.82-5.47,2.12a6.4,6.4,0,0,0-1.53,3.67c0,1.28.61,1.93,1.83,1.93a11.65,11.65,0,0,0,2-.16,20.64,20.64,0,0,1,2.32-.35l-1,2.67c-1.47,4-2.86,7.85-4.14,11.6s-2.51,7.6-3.67,11.52-2,7.1-2.6,9.54a27.84,27.84,0,0,0-.84,5.14c0,2.42,1.06,3.62,3.06,3.62a11,11,0,0,0,4.34-1.34,14,14,0,0,0,4.07-2.71,14.86,14.86,0,0,0,2.63-4.81q1.33-3.44,3.27-10.52l.79-3q3.15-10.87,6.36-23.2a8.27,8.27,0,0,1,4.87,2.73,8.62,8.62,0,0,1,1.53,5.46,16.51,16.51,0,0,1-1.07,5.85,14.94,14.94,0,0,1-2.93,5.06,18.34,18.34,0,0,1-2.73,2.39,11.72,11.72,0,0,1-2.76,1.39,4.33,4.33,0,0,0-1.64.87,1.85,1.85,0,0,0-.45,1.3,4.67,4.67,0,0,0,.08.91A32.64,32.64,0,0,0,147,234c.54,1.45,1.19,3,1.93,4.49s1.42,2.77,2.22,4.11a28.11,28.11,0,0,0,2.4,3.43,14.93,14.93,0,0,0,4.32,3.29,10.2,10.2,0,0,0,4.42,1.4c2.17,0,4-1.08,5.57-3.23a16.15,16.15,0,0,0,1.86-3.35,30.83,30.83,0,0,0,1.27-4.89,6.81,6.81,0,0,1-.74-.31A31.68,31.68,0,0,1,160.62,233.16Z"/><path class="cls-1" d="M221.62,241.68c-.4-1.88-.75-3.69-1-5.4s-.43-3.44-.56-5.24-.19-3.79-.19-6a138.17,138.17,0,0,1,1-15.88c.15-1.39.22-2.31.22-2.76q0-3.3-3.43-3.3a7.38,7.38,0,0,0-4.67,1.53,7.12,7.12,0,0,0-1.47,1.71q-.74,1.16-2.3,4.16-2.39,4.69-6.07,10.7c-2.45,4-4.53,7.18-6.55,9.91s-3.35,4.1-3.88,4.1-.79-.46-.79-1.46a29.47,29.47,0,0,1,.68-4.29c.45-2.17,1.07-4.85,1.87-8s1.43-5.52,1.9-7.09l.45-1.4c.13-.38.21-.65.26-.81.6-1.89,1.43-4.15,2.43-6.7a18.41,18.41,0,0,0,1.68-6.11c0-2.42-1.33-3.62-4-3.62a23.42,23.42,0,0,0-5,.55,8.29,8.29,0,0,0-2.71,1,4.44,4.44,0,0,0-1.52,1.64c-.52,1-1.25,2.69-2.2,5.08s-1.83,4.85-2.65,7.41-1.63,5.28-2.43,8.19q-3.51,13.16-3.51,19.94c0,3.49.85,6.21,2.54,8.14a9,9,0,0,0,7.1,2.89,9.46,9.46,0,0,0,4.55-1.32,20.18,20.18,0,0,0,4.78-3.84,41.07,41.07,0,0,0,4.07-5.24q2.16-3.18,5-8.39h.07c.08,1.47.14,2.52.17,3.12a30.12,30.12,0,0,0,1.9,9.18,12.53,12.53,0,0,0,3.19,4.65,6.22,6.22,0,0,0,4.09,1.65,14.9,14.9,0,0,0,5-1.3,4.21,4.21,0,0,0,2.35-1.53,2,2,0,0,0,.41-1.18A31,31,0,0,0,221.62,241.68Z"/></g><path id="Udemy" class="cls-2" d="M251.51,125.07h-.1a7.34,7.34,0,0,0-3-1.51,144.9,144.9,0,0,1-21.32,18A20.57,20.57,0,0,1,217,144.65c-6.34,0-9-5.84-9.71-15.34q-2.1-25.77-1.83-51.53c0-24.06-5.55-40.52-20.08-41.77l-1.88-.09c-8.86,0-13.24,4.58-18.86,16.19-4.91,10-12.5,24.54-26.42,52.27a371.77,371.77,0,0,1-37.32,59.48c-3.33,4-5.86,6.83-8.32,8.54a8.55,8.55,0,0,1-4.72,1.5c-4.57,0-8-3.83-9-12.91a55.29,55.29,0,0,1-.41-7.39c0-18.67,7-49,19.15-93.59,8.84-32.55,5.1-54.74-14.31-54.74H83c-4.37,0-8,1.71-11.54,4.5s-6.9,8.63-10.24,16.64c-3.65,9-25.81,53.66-61.22,76.75-.41,8.67,4.52,17.4,14.63,18.45,9,.87,15.53-3,23.86-8.62l-1.71,7.79c-2.12,9.16-3.92,18.4-5.29,27.7-4.89,44.81,15.73,66.89,39.93,66.89a45,45,0,0,0,12-1.63c26.65-6.71,52.22-37.39,82.62-108a211.81,211.81,0,0,0-.13,21.53c2,40.53,18,52.56,40.53,52.56,17.07,0,33-8.82,41.07-20A39.16,39.16,0,0,0,256,136.57C255.8,131.29,254.18,127.16,251.51,125.07Z"/></svg>