<svg xmlns="http://www.w3.org/2000/svg" viewBox="0 0 1080 1080"><g id="bg"><rect width="1080" height="1080" rx="216"/></g><g id="logo"><path fill="#a435f0" d="M863.66,394.41,677.85,287.2,492.12,394.41V287.2L677.9,180,863.66,287.2Z"/><path fill="#fff" d="M492.1,484.43h97.34V720.74c0,61.06,45.6,90.82,88.44,90.82,43.2,0,88.48-30.56,88.48-91.64V484.43h97.33v242c0,56.24-17.69,99.64-53.07,129.4S731,900,677,900s-98.1-14.46-132.66-44.22-52.28-71.53-52.28-127Z"/><path fill="#fff" d="M216.31,655.64V900h97.33V663.68c0-61,45.59-90.82,88.42-90.82h0V484.44h-.82c-53.86,0-98.1,14.45-132.66,44.22S216.31,600.17,216.31,655.64Z"/></g></svg>
