<svg xmlns="http://www.w3.org/2000/svg" viewBox="0 0 971.07 1080"><g id="logo"><path fill="#a435f0" d="M971,321.61,692.28,160.8,413.69,321.61V160.8L692.35,0,971,160.8V321.61Z"/><path d="M413.69,456.65h146V811.12c0,91.58,68.41,136.23,132.66,136.23,64.81,0,132.72-45.84,132.72-137.46V456.65h146V819.57c0,84.36-26.54,149.46-79.61,194.1S772,1080,691.1,1080s-147.16-21.68-199-66.33-78.42-107.29-78.42-190.5Z"/><path d="M0,713.47V1080H146V725.53C146,634,214.38,589.3,278.63,589.3h0V456.66H277.4c-80.79,0-147.15,21.68-199,66.33S0,630.26,0,713.47Z"/></g></svg>
